:SAMPLES-PER-SECOND 30
:FULLY-SPECIFIED
:DEGREES
317
root  34.83330734 36.57420301 -14.2110359 9.475539207 -1.854090929 3.358166933
lowerback  -8.708459854 -0.1991190463 -0.8293446302
upperback  -3.69633007 0.3196969926 -3.769239902
thorax  1.07249999 0.3347879946 -3.399159908
lowerneck  -14.84300041 -5.622019768 -4.052790165
upperneck  16.23590088 -7.95663023 7.547309875
head  7.940317154 -3.182157755 2.268702269
lclavicle  0 -4.497500157e-015 -2.743230041e-014
lhumerus  -48.40420151 31.78450012 61.73199844
lradius  -0.05983592197 -6.507048965e-006 29.59440231
lwrist  3.192251654e-007 -3.790274832e-007 -29.07939911
lhand  -4.403357898e-031 -36.68650055 -10.5717001
lfingers  90 7.125020027 -90
lthumb  94.69450592 -25.41686336 100.8314207
rclavicle  0 -4.497500157e-015 -2.743230041e-014
rhumerus  -43.58840179 -21.63400269 -42.25669861
rradius  -5.16745672e-007 2.214343908e-008 114.0940018
rwrist  0.0006954420824 -0.004670973402 174.7870026
rhand  -1.773769959e-031 5.51391983 -5.793630123
rfingers  -90 -7.125020027 -90
rthumb  -83.89505489 -10.09180537 -58.60045054
rfemur  -10.38212299 14.63825989 13.10320663
rtibia  -0.05913084 -0.4689572155 17.99038124
rfoot  1.172667861 -20.60889626 -36.99753571
rtoes  3.940523329 19.62356788 -101.5911419
lfemur  -3.883644819 -16.5950489 -22.00401497
ltibia  6.544141293 0.3350521028 7.689357758
lfoot  0.2838961482 -22.97656441 34.98582458
ltoes  -8.603310072 -18.12379643 -115.9367771
318
root  34.8337579 36.57588208 -14.21326615 9.457237244 -1.868476748 3.331448078
lowerback  -8.71117878 -0.2351589203 -0.8816024065
upperback  -3.700639963 0.2740879953 -3.734189987
thorax  1.06693995 0.3121399879 -3.337409973
lowerneck  -14.85589981 -5.552380085 -4.028930187
upperneck  16.23520088 -7.861140251 7.51996994
head  7.939030647 -3.138560534 2.273262501
lclavicle  0 -4.497500157e-015 -2.743230041e-014
lhumerus  -48.46149826 31.8701992 61.68650055
lradius  -0.06014095619 -6.507048965e-006 29.53790283
lwrist  3.192251654e-007 -3.790274832e-007 -29.10619926
lhand  -4.402115997e-031 -36.66479874 -10.54539967
lfingers  90 7.125020027 -90
lthumb  94.67896641 -25.39185482 100.8059479
rclavicle  0 -4.497500157e-015 -2.743230041e-014
rhumerus  -44.41180038 -21.67270088 -42.84120178
rradius  -5.16745672e-007 2.214343908e-008 113.5500031
rwrist  0.0006954420824 -0.004670973402 175.1970062
rhand  -1.774179408e-031 5.649240017 -5.99710989
rfingers  -90 -7.125020027 -90
rthumb  -83.96727148 -9.925472596 -58.48667683
rfemur  -10.35883808 14.65094471 13.1313839
rtibia  -0.0420897454 -0.4363484085 17.97433853
rfoot  1.193710804 -20.56731224 -36.96496201
rtoes  3.945538642 19.6225983 -101.6060759
lfemur  -3.991897345 -16.58305931 -21.92418861
ltibia  6.428126812 0.332819581 7.899433136
lfoot  0.2787235379 -23.04619789 34.96208572
ltoes  -8.591107507 -18.12943191 -115.8975555
319
root  34.83466501 36.5756598 -14.21626684 9.422842979 -1.894875526 3.317997456
lowerback  -8.739479065 -0.2565560043 -0.8993026018
upperback  -3.705420017 0.2459030002 -3.698679924
thorax  1.076009989 0.2979339957 -3.293129921
lowerneck  -14.856987 -5.496220112 -4.047070026
upperneck  16.22520065 -7.780809879 7.527609825
head  7.928170204 -3.101860046 2.285269976
lclavicle  0 -4.497500157e-015 -2.743230041e-014
lhumerus  -48.52349854 31.80789757 61.77130127
lradius  -0.06039259955 -6.507048965e-006 29.61450005
lwrist  3.192251654e-007 -3.790274832e-007 -28.9612999
lhand  -4.402070398e-031 -36.66400146 -10.57660007
lfingers  90 7.125020027 -90
lthumb  94.6850571 -25.42246548 100.8078674
rclavicle  0 -4.497500157e-015 -2.743230041e-014
rhumerus  -45.14500046 -21.73950005 -43.4518013
rradius  -5.16745672e-007 2.214343908e-008 112.9410019
rwrist  0.0006954420824 -0.004670973402 175.8249969
rhand  -0 5.635829926 -6.110290051
rfingers  -90 -7.125020027 -90
rthumb  -84.03078347 -9.82823646 -58.51001535
rfemur  -10.32777214 14.67358589 13.13909626
rtibia  -0.02823349647 -0.4349531531 17.97287369
rfoot  1.181046486 -20.6014061 -36.98284149
rtoes  3.930171541 19.62556507 -101.5603198
lfemur  -3.918930531 -16.58701515 -21.94023705
ltibia  6.44556284 0.3183202744 7.845037937
lfoot  0.2552187443 -22.99432945 34.9747963
ltoes  -8.581263807 -18.13397072 -115.8659243
320
root  34.83495036 36.57620648 -14.21752389 9.411230087 -1.913256049 3.304188728
lowerback  -8.72961998 -0.2819099426 -0.8987500668
upperback  -3.712850094 0.209634006 -3.671509981
thorax  1.060989976 0.2792870104 -3.268589973
lowerneck  -14.85229969 -5.43227005 -4.038410187
upperneck  16.2390995 -7.691939354 7.510310173
head  7.926350117 -3.060839891 2.288919926
lclavicle  0 -4.497500157e-015 -2.743230041e-014
lhumerus  -48.58480072 31.73450089 61.84519958
lradius  -0.06058914587 -6.507048965e-006 29.67129898
lwrist  3.192251654e-007 -3.790274832e-007 -28.78129959
lhand  -4.401235534e-031 -36.6493988 -10.56459999
lfingers  90 7.125020027 -90
lthumb  94.67577023 -25.41123837 100.791198
rclavicle  0 -4.497500157e-015 -2.743230041e-014
rhumerus  -45.86520004 -21.76999855 -44.1242981
rradius  -5.16745672e-007 2.214343908e-008 112.3730011
rwrist  0.0006954420824 -0.004670973402 176.2550049
rhand  -1.774082282e-031 5.617440224 -6.201179981
rfingers  -90 -7.125020027 -90
rthumb  -84.08371726 -9.749719881 -58.53626483
rfemur  -10.33053493 14.69542885 13.1530447
rtibia  -0.02013353258 -0.4345713258 17.99440575
rfoot  1.159645557 -20.64032555 -37.00060654
rtoes  3.957488705 19.62028286 -101.6416624
lfemur  -3.974635124 -16.67723846 -21.89512825
ltibia  6.379184246 0.2790242732 7.959870815
lfoot  0.2370369732 -22.93515205 35.00957108
ltoes  -8.55641599 -18.14539887 -115.7861137
321
root  34.83600166 36.57685828 -14.22106075 9.405371666 -1.958126664 3.294354916
lowerback  -8.717578888 -0.3022749126 -0.8819100261
upperback  -3.715879917 0.1777659953 -3.643249989
thorax  1.049550056 0.2623139918 -3.251689911
lowerneck  -14.84210014 -5.344979763 -3.952640057
upperneck  16.2105999 -7.574629307 7.423419952
head  7.900579929 -3.010770082 2.260449886
lclavicle  0 -4.497500157e-015 -2.743230041e-014
lhumerus  -48.62779999 31.63570023 61.91199875
lradius  -0.06072889268 -6.507048965e-006 29.70070076
lwrist  3.192251654e-007 -3.790274832e-007 -28.62929916
lhand  -4.400698468e-031 -36.63999939 -10.66769981
lfingers  90 7.125020027 -90
lthumb  94.69273173 -25.51276661 100.7903099
rclavicle  0 -4.497500157e-015 -2.743230041e-014
rhumerus  -46.51520157 -21.92280197 -44.76439667
rradius  -5.16745672e-007 2.214343908e-008 111.6210022
rwrist  0.0006954420824 -0.004670973402 176.6990051
rhand  -1.775147496e-031 5.956779957 -6.385369778
rfingers  -90 -7.125020027 -90
rthumb  -84.09383662 -9.612356139 -58.2208665
rfemur  -10.34061146 14.72411537 13.15032196
rtibia  -0.01325045153 -0.4358277321 18.00505447
rfoot  1.145172715 -20.67107773 -37.01024246
rtoes  3.955532758 19.62066234 -101.6358374
lfemur  -3.921492815 -16.60108948 -21.9095974
ltibia  6.411897659 0.2958519459 7.883859634
lfoot  0.2393974364 -22.94320869 35.02619171
ltoes  -8.567724695 -18.14020283 -115.8224309
322
root  34.83689676 36.57670209 -14.22229226 9.382761955 -1.987516165 3.269738913
lowerback  -8.696249962 -0.3429439962 -0.9672130346
upperback  -3.740240097 0.125327006 -3.564670086
thorax  1.010040045 0.2361859977 -3.126569986
lowerneck  -14.83549976 -5.239150047 -3.898289919
upperneck  16.22069931 -7.425909996 7.335080147
head  7.887650013 -2.946609974 2.240350008
lclavicle  0 -4.497500157e-015 -2.743230041e-014
lhumerus  -48.77030182 31.64500046 61.93149948
lradius  -0.06081014127 -6.507048965e-006 29.73920059
lwrist  3.192251654e-007 -3.790274832e-007 -28.67720032
lhand  -4.400692802e-031 -36.63990021 -10.62829971
lfingers  90 7.125020027 -90
lthumb  94.68450557 -25.47417343 100.7866252
rclavicle  0 -4.497500157e-015 -2.743230041e-014
rhumerus  -47.02629852 -21.84700012 -45.3647995
rradius  -5.16745672e-007 2.214343908e-008 110.7939987
rwrist  0.0006954420824 -0.004670973402 177.0789948
rhand  -1.775183446e-031 5.967889786 -6.694749832
rfingers  -90 -7.125020027 -90
rthumb  -84.25611783 -9.350025721 -58.23719776
rfemur  -10.30072498 14.69734573 13.1507864
rtibia  0.01150888391 -0.440985322 17.95791435
rfoot  1.173766732 -20.69171524 -36.94961548
rtoes  3.972459496 19.61737179 -101.68625
lfemur  -4.031217575 -16.57116127 -21.83121681
ltibia  6.291531563 0.3164079189 8.102966309
lfoot  0.262227416 -23.07904053 35.05638504
ltoes  -8.573555554 -18.13752037 -115.8411603
323
root  34.83859085 36.57661798 -14.22392477 9.369053841 -2.030103922 3.272010803
lowerback  -8.667849541 -0.3660190105 -0.894914031
upperback  -3.768699884 0.08763819933 -3.559000015
thorax  0.9629870057 0.2167509943 -3.165040016
lowerneck  -14.81690025 -5.156189919 -3.843509912
upperneck  16.25370026 -7.318740368 7.306789875
head  7.885529995 -2.894079924 2.235500097
lclavicle  0 -4.497500157e-015 -2.743230041e-014
lhumerus  -48.87879944 31.68499947 61.82640076
lradius  -0.0608311817 -6.507048965e-006 29.73220062
lwrist  3.192251654e-007 -3.790274832e-007 -28.75279999
lhand  -0 -36.66989899 -10.61670017
lfingers  90 7.125020027 -90
lthumb  94.69613868 -25.46168404 100.8177315
rclavicle  0 -4.497500157e-015 -2.743230041e-014
rhumerus  -47.60599899 -21.95360184 -45.9905014
rradius  -5.16745672e-007 2.214343908e-008 109.8960037
rwrist  0.0006954420824 -0.004670973402 177.3379974
rhand  -1.775211159e-031 5.976439953 -6.850729942
rfingers  -90 -7.125020027 -90
rthumb  -84.3371337 -9.21793115 -58.24221566
rfemur  -10.30177593 14.67764091 13.15291882
rtibia  0.01274334267 -0.4549716711 17.97616959
rfoot  1.17587018 -20.73436165 -36.88870239
rtoes  3.979890484 19.61592256 -101.7083841
lfemur  -4.001471996 -16.58913231 -21.84937286
ltibia  6.300008297 0.3124057651 8.07479763
lfoot  0.2592511475 -23.06233978 35.1085968
ltoes  -8.565133015 -18.14139439 -115.814107
